<svg xmlns="http://www.w3.org/2000/svg" xmlns:xlink="http://www.w3.org/1999/xlink" width="500" zoomAndPan="magnify" viewBox="0 0 375 374.999991" height="500" preserveAspectRatio="xMidYMid meet" version="1.0"><defs><clipPath id="a4963be353"><path d="M 79 60 L 273 60 L 273 283 L 79 283 Z M 79 60 " clip-rule="nonzero"/></clipPath><clipPath id="2e45d45c30"><path d="M 79.386719 93.894531 L 120.910156 60.417969 L 272.910156 248.957031 L 231.382812 282.433594 Z M 79.386719 93.894531 " clip-rule="nonzero"/></clipPath><clipPath id="5eaac1975a"><path d="M 66.320312 60.417969 L 120.792969 60.417969 L 120.792969 288.898438 L 66.320312 288.898438 Z M 66.320312 60.417969 " clip-rule="nonzero"/></clipPath><clipPath id="bd62652058"><path d="M 260.808594 60.417969 L 308.679688 60.417969 L 308.679688 109.054688 L 260.808594 109.054688 Z M 260.808594 60.417969 " clip-rule="nonzero"/></clipPath><clipPath id="f7240a7b47"><path d="M 230 247 L 279 247 L 279 298 L 230 298 Z M 230 247 " clip-rule="nonzero"/></clipPath><clipPath id="82d230f745"><path d="M 299.265625 280.363281 L 257.425781 314.574219 L 230.308594 281.414062 L 272.148438 247.203125 Z M 299.265625 280.363281 " clip-rule="nonzero"/></clipPath><clipPath id="e058695774"><path d="M 278.351562 297.464844 L 230.324219 281.402344 L 272.148438 247.203125 Z M 278.351562 297.464844 " clip-rule="nonzero"/></clipPath></defs><g clip-path="url(#a4963be353)"><g clip-path="url(#2e45d45c30)"><path fill="#ffffff" d="M 79.386719 93.894531 L 120.910156 60.417969 L 272.871094 248.910156 L 231.347656 282.386719 Z M 79.386719 93.894531 " fill-opacity="1" fill-rule="nonzero"/></g></g><g clip-path="url(#5eaac1975a)"><path fill="#ffffff" d="M 66.320312 60.417969 L 120.792969 60.417969 L 120.792969 288.949219 L 66.320312 288.949219 Z M 66.320312 60.417969 " fill-opacity="1" fill-rule="nonzero"/></g><g clip-path="url(#bd62652058)"><path fill="#ffffff" d="M 260.808594 60.417969 L 308.679688 60.417969 L 308.679688 109.039062 L 260.808594 109.039062 Z M 260.808594 60.417969 " fill-opacity="1" fill-rule="nonzero"/></g><g clip-path="url(#f7240a7b47)"><g clip-path="url(#82d230f745)"><g clip-path="url(#e058695774)"><path fill="#ffffff" d="M 299.265625 280.363281 L 257.425781 314.574219 L 230.308594 281.414062 L 272.148438 247.203125 Z M 299.265625 280.363281 " fill-opacity="1" fill-rule="nonzero"/></g></g></g></svg>